<?xml version="1.0" standalone="no"?>
<svg viewBox="-305 -150 1500 1500" style="width: 390px; height: 390px; justify-content: center; align-self: center; transform: scale(-1, 1);" xmlns="http://www.w3.org/2000/svg"><g transform="rotate(0 519.7896137237549 592.7927093505859)"><g transform="translate(0 459)"><path d="M971.081 233.472C956.802 234.874 942.523 236.274 928.243 237.676C859.855 242.901 791.494 253.813 723.63 260.362C721.94 257.612 718.633 258.065 716.625 259.976C709.853 259.383 702.263 254.207 696.129 259.591C695.93 259.563 695.731 259.53 695.529 259.511C684.607 238.548 677.058 216.189 669.73 193.8C665.054 180.035 658.761 166.71 647.133 157.468C627.289 143.693 581.822 115.76 558.52 116.934C558.134 112.762 556.189 108.462 552.995 105.684C560.034 93.6851 531.892 85.8561 529.907 87.2471C531.179 47.1591 512.322 12.3451 470.742 4.36214C433.492 -3.39986 380.509 -4.70386 360.475 34.2251C358.273 33.9771 335.762 33.8599 333.584 34.1039C330.197 29.8149 293.008 70.457 308.25 84.606C171.978 144.888 94.4928 137.695 56.7747 307.164C51.6756 323.084 51.3042 340.505 45.9198 356.07C26.7635 400.801 11.2258 448.432 7.35888 497.104C-1.98054 499.497 -3.05463 515.964 7.76329 518.346C11.8955 519.257 15.3509 520.501 18.364 522.86C16.0086 562.746 25.6553 653.86 31.7335 653.579C44.127 693.022 99.4086 704.154 138.546 690.293C131.799 702.986 138.546 710.967 138.546 717.749C279.373 723.077 433.353 720.008 574.141 727.315C592.15 727.059 611.092 731.738 628.855 729.045C639.688 726.448 639.706 709.415 628.718 707.309L676.731 696.881C675.658 696.476 696.522 682.598 712.291 656.665C726.969 627.655 716.979 592.637 723.63 561.081C775.574 556.833 828.377 555.017 879.753 546.22C886.758 567.179 917.082 542.113 926.721 532.03C926.709 532.014 926.697 531.999 926.685 531.983C931.349 530.707 935.09 526.335 935.215 521.159C938.486 516.485 939.173 509.897 936.036 505.38C950.414 422.412 972.335 337.7 980.258 253.952C983.058 253.332 985.696 252.104 987.932 250.212L987.751 250.031C991.54 245.807 992.277 238.516 985.96 234.927C980.865 232.029 976.611 232.928 971.081 233.472Z" transform="translate(25.00024 -24.00044)" fill="#FFFFFF" stroke="none"></path><path d="M369.072 6.18403C373.315 -4.47897 387.658 -0.33397 386.059 10.868C385.102 17.578 381.427 24.665 378.126 30.546C375.438 35.333 372.372 40.005 368.215 43.593C375.615 50.497 383.296 57.149 391.172 63.465C399.766 70.356 408.803 76.708 418.144 82.546C426.335 87.666 434.896 92.202 442.617 98.044C449.796 103.475 456.336 110.007 459.664 118.534C463.209 127.614 461.668 136.992 459.058 146.066L458.758 147.092C456.091 156.082 451.474 166.919 457.876 175.389C461.135 179.701 465.873 182.755 469.964 186.202C473.6 189.266 477.013 192.598 480.143 196.177C486.968 203.979 492.519 212.758 496.022 222.54L496.335 223.429C499.338 232.088 501.532 242.696 497.475 251.198C496.311 253.635 492.557 252.843 491.905 250.47C490.431 245.094 490.508 239.464 489.272 234.012C487.986 228.342 485.846 222.96 483.051 217.868C477.643 208.017 470.319 199.603 461.666 192.489L459.076 190.383C452.326 184.843 446.124 178.966 444.754 169.798C443.288 159.989 447.218 150.645 449.745 141.361C451.506 134.891 452.081 128.689 450.178 122.842C447.853 126.637 444.681 130.239 442.172 133.452C437.175 139.853 432.131 146.215 427.1 152.589C421.942 159.125 416.911 165.764 412.12 172.575C409.977 175.622 407.857 178.687 405.744 181.755C404.155 184.061 401.939 186.365 400.207 188.717C400.628 189.975 400.596 191.425 399.833 192.455C390.648 204.865 377.581 178.971 374.173 172.429C367.233 159.106 362.068 144.952 355.105 131.632C347.89 117.824 339.674 104.384 330.517 91.778C324.978 84.153 318.77 76.991 313.703 69.124C301.766 79.948 286.058 87.204 271.63 93.784C255.777 101.013 239.308 106.918 223.055 113.188L218.254 115.053C190.249 125.983 161.56 137.99 138.283 157.403C110.93 180.216 94.7478 212.012 82.7008 244.938C68.8328 282.843 57.3598 321.771 46.6648 360.674C41.1918 380.579 35.9988 400.574 31.1168 420.633C26.8148 438.305 23.2488 456.153 18.2688 473.643C28.3688 473.286 39.8878 477.196 48.5108 478.325C87.8098 483.469 126.58 491.669 163.683 505.866C168.266 507.62 169.592 512.197 168.594 515.907C171.237 515.161 173.878 514.405 176.521 513.663C173.625 509.226 175.007 501.294 175.235 496.376L175.249 496.038C175.483 489.485 176.194 482.925 176.655 476.384C177.533 463.915 178.675 451.537 180.195 439.14L180.583 436.04C182.305 422.552 183.578 408.985 185.457 395.52L185.679 393.979C184.778 390.534 183.729 387.131 182.628 383.743C179.694 374.718 175.553 366.223 171.924 357.482C171.496 356.453 172.962 355.862 173.647 356.479C179.793 362.008 184.675 369.022 188.597 376.358C188.665 376.012 188.725 375.665 188.796 375.319L189.243 373.116C190.347 367.744 191.689 362.092 194.985 357.735C195.336 357.272 196.03 357.175 196.362 357.735C199.516 363.072 199.869 369.831 200.354 375.904C200.903 382.774 200.972 389.731 200.875 396.62C200.686 410.083 199.737 423.584 198.981 437.025C198.239 450.233 196.783 463.274 194.906 476.352L194.549 478.805C193.631 485.03 192.88 491.333 191.67 497.515L191.328 499.198C190.681 502.264 190.283 506.587 188.995 510.178C222.133 500.935 255.322 491.903 288.574 483.03C312.607 476.616 336.665 470.298 360.713 463.94C361.982 461.653 363.562 459.517 365.534 457.608C372.031 451.316 380.641 448.509 388.538 453.352C389.18 453.747 389.234 454.753 388.538 455.134C387.025 455.961 385.509 456.809 384.02 457.693L398.46 453.782C409.253 450.857 420.175 447.202 431.222 445.163C451.569 435.122 473.453 427.854 494.887 420.671L497.413 419.817C508.387 416.075 519.739 411.886 531.078 409.812C539.379 408.294 549.123 410.126 552.461 418.63C556.687 421.415 560.663 424.688 564.5 427.907C567.274 430.233 569.933 432.706 572.637 435.114L573.135 435.552C575.346 437.47 577.097 438.754 577.64 441.807C577.92 443.384 576.918 445.516 574.973 445.307C569.022 444.67 564.183 437.772 560.147 433.653C557.029 430.469 553.886 427.177 551.04 423.678C549.381 424.581 547.107 424.419 546.051 422.419C540.575 412.05 525.574 419.235 517.274 421.694L505.384 425.213C499.439 426.975 493.497 428.746 487.565 430.548C471.261 435.499 455.037 441.04 438.585 445.587C440.057 447.205 439.854 450.083 437.058 451.178C424.18 456.231 410.052 458.844 396.673 462.311C388.226 464.502 379.784 466.706 371.345 468.923C369.898 471.267 368.857 473.919 368.419 477.006C366.808 488.357 369.914 501.453 372.94 512.431L373.396 514.069C375.883 522.895 379.542 533.715 387.157 539.288C389.016 540.647 391.383 541.593 393.769 541.807C408.676 534.134 423.582 526.462 438.497 518.804C441.26 517.385 443.813 519.306 444.433 521.59C449.692 520.727 454.939 519.367 459.718 517.745C467.748 515.018 474.018 509.817 481.546 506.22C496.112 499.262 510.987 507.809 524.028 514.307L527.034 515.784C532.882 518.622 545.05 524.073 547.856 516.312C550.57 508.804 541.989 500.78 536.447 497.401C529.841 493.372 522.149 491.216 514.683 489.42C510.42 488.394 506.105 487.557 501.764 486.946C496.84 486.253 491.754 486.357 487.013 484.76C484.657 483.968 484.295 480.226 487.013 479.608C494.311 477.947 503.021 479.759 510.637 481.61L514.618 482.591C522.291 484.474 530.038 486.837 537.027 490.593C542.109 493.325 547.473 497.475 550.977 502.555C554.02 499.728 557.807 499.824 561.752 500.872L563.893 501.468C567.429 502.447 570.295 503.122 573.736 502.443C574.196 499.94 574.662 497.436 575.161 494.932C580.064 470.318 585.441 445.798 591.374 421.409C601.608 379.341 613.45 337.735 626.8 296.556L628.14 292.439C631.219 283.02 633.697 272.758 638.661 264.105C643.356 255.923 650.878 251.21 659.815 248.714C669.957 245.882 680.614 244.4 690.96 242.487C693.268 242.061 695.582 241.656 697.892 241.237C695.94 237.712 694.483 233.711 693.17 230.641L692.94 230.109C690.12 223.68 687.587 217.136 685.141 210.556L683.312 205.61C678.895 193.699 674.336 181.984 668.127 170.844C661.591 159.12 652.92 149.535 642.111 141.602C620.073 125.426 593.51 117.175 572.135 99.888C571.259 99.18 572.382 97.969 573.271 98.417C587.704 105.669 603.285 110.6 618.297 116.504L621.258 117.672C633.124 122.376 645.174 127.497 655.444 135.112C666.894 143.604 675.912 154.15 682.69 166.691C689.37 179.053 693.643 192.89 698.356 206.094L699.616 209.612C701.517 214.888 703.481 220.148 705.731 225.282C707.517 229.358 710.85 234.011 712.365 238.667C716.51 237.948 720.654 237.227 724.803 236.534C814.67 221.53 905.541 212.714 996.614 210.135C1000.18 210.034 1002.02 213.434 1001.49 216.542C992.755 268.223 984.988 320.081 976.466 371.801C972.746 394.374 968.952 416.93 965.069 439.475C963.102 450.897 960.828 462.275 958.965 473.714C957.461 482.952 956.369 492.262 953.787 501.286C951.471 509.377 947.917 517.179 942.08 523.352C935.788 530.006 927.006 533.227 918.166 534.749C895.725 538.611 872.707 540.188 850.084 542.761L729.637 556.464C731.397 572.463 731.529 588.212 730.721 604.397L730.261 613.233C729.884 620.339 729.435 627.457 728.414 634.49C727.134 643.313 723.098 650.784 717.153 657.374C711.694 663.426 705.062 668.59 698.611 673.538C691.915 678.676 684.996 683.635 677.123 686.812L676.101 687.218C669.194 689.914 656.237 694.09 646.797 692.564C648.031 698.747 650.419 705.395 648.302 711.513C647.32 714.354 643.605 715.771 641.329 713.354C636.82 708.563 636.468 702.235 635.4 695.985C634.289 689.481 633.331 682.954 632.48 676.411C630.834 663.76 629.553 650.993 629.162 638.235C628.76 625.133 628.915 612.013 629.621 598.925C629.984 592.204 630.434 585.487 631.287 578.809C631.651 575.961 632.023 573.111 632.448 570.27C632.603 569.234 632.775 568.203 632.96 567.174L622.149 568.394C605.572 570.244 588.988 571.915 572.294 572.175C570.317 572.205 568.796 571.305 567.802 569.994C566.743 571.719 564.899 572.953 562.258 572.943C538.945 572.856 517.235 565.233 496.031 556.249C485.343 551.719 474.821 546.815 464.117 542.324C454.126 538.132 443.445 535.141 433.695 530.419L408.075 543.857C407.887 544.518 407.646 545.143 407.39 545.666C405.722 549.071 402.433 550.918 399.074 552.309C395.85 553.647 392.511 554.063 389.258 553.725C369.828 563.907 350.393 574.079 330.945 584.228L311.493 594.368C272.737 614.547 234.134 635.057 195.134 654.762L192.263 656.207C178.792 662.962 164.327 669.809 149.378 674.918C149.112 678.702 149.28 682.382 149.597 686.387L149.673 687.259C150.119 691.992 151.075 697.923 147.278 701.292C145.303 703.044 141.775 703.051 140.432 700.409C137.995 695.618 140.183 688.065 140.955 682.86C141.229 681.009 141.563 679.106 142.057 677.26C124.919 682.362 107.262 684.836 89.8218 681.971C72.8418 679.184 59.6908 668.487 49.0888 655.403C37.8998 641.596 29.9488 625.505 25.6828 608.256C20.8278 588.628 20.5108 568.358 20.6248 548.253C20.7458 526.844 21.5378 505.329 24.1418 484.064C21.2888 483.393 18.1248 482.813 15.2418 483.013C13.8138 485.298 11.0438 486.26 8.5408 485.963C3.0978 491.966 16.9038 498.101 21.3158 499.637C22.8478 500.171 22.6838 502.659 20.9168 502.584L19.8038 502.531C12.9864 502.168 5.94317 501.004 1.9348 494.669C-1.2772 489.591 -0.312196 483.575 3.5168 479.434C6.0458 455.522 12.0918 432.237 17.7188 408.911C23.2408 386.016 29.3818 363.268 35.8908 340.635L38.8088 330.505C49.0571 295.016 59.7692 259.241 73.9058 225.163C80.9648 208.147 89.0968 191.444 100.12 176.607C110.395 162.776 122.526 150.941 136.47 140.833C162.465 121.987 192.967 110.6 222.937 99.7515L224.279 99.266C239.81 93.648 255.303 87.963 270.657 81.876C284.236 76.493 297.245 69.668 310.76 64.204C310.321 63.407 309.897 62.601 309.489 61.786L309.239 61.9962C309.196 62.0301 309.152 62.063 309.107 62.094C307.748 63.036 305.747 62.573 304.627 61.516C301.464 58.532 302.535 55.2195 304.646 52.1249L304.921 51.731C307.503 48.114 309.806 44.29 312.189 40.542L313.681 38.1982C317.681 31.9365 321.884 25.6331 327.218 20.458C329.688 18.06 332.392 16.266 335.257 14.929C335.012 14.411 337.16 13.352 337.769 13.885C346.846 10.563 357.289 11.259 367.185 12.175M723.809 557.126L711.189 558.561C697.305 560.141 683.415 561.668 669.524 563.181L639.352 566.46C639.275 568.18 639.066 569.862 639.028 571.161C638.831 577.858 638.684 584.558 638.545 591.257C638.266 604.685 638.572 618.126 639.456 631.528C640.313 644.514 641.441 657.502 643.195 670.401L643.554 672.979L643.762 674.335C645.193 674.473 646.599 675.153 647.768 676.55C650.32 679.597 659.561 676.635 663.17 675.351C669.105 673.239 674.694 669.671 679.851 666.093C684.887 662.599 689.422 658.526 693.78 654.234L697.345 650.708C700.892 647.183 704.443 643.428 706.616 638.995C709.563 632.983 709.944 625.603 710.808 619.055C711.872 611.001 713.139 602.948 714.478 594.934M357.454 472.584L356.145 472.928C308.594 485.563 261.114 498.571 213.417 510.648C189.813 516.626 166.097 522.169 142.464 528.032L138.638 528.989C119.994 533.701 101.126 539.372 86.8488 552.895C86.3218 553.393 85.5568 552.628 86.0528 552.099C101.44 535.719 123.324 528.785 144.336 522.774C148.22 521.663 152.109 520.578 155.994 519.473C127.418 509.286 98.3908 500.423 68.6938 494.102C61.0468 492.474 53.3108 491.279 45.6698 489.645C40.3409 488.505 35.1367 486.857 29.8641 485.489L25.7168 484.446L25.6617 497.554C25.5927 516.119 25.6257 534.669 26.5728 553.231L26.7521 556.67C27.8572 577.327 29.5821 598.413 36.9128 617.891C42.8698 633.719 52.3648 648.63 64.7818 660.159C71.0648 665.992 77.8198 670.533 86.1698 672.775C93.9228 674.856 102.046 675.1 110.016 674.545C148.245 671.878 182.275 651.111 215.483 633.917C269.8 605.794 324.123 577.685 378.495 549.67C377.025 548.665 375.641 547.507 374.382 546.206C367.091 538.676 363.245 528.368 360.719 518.385C358.03 507.759 356.422 496.37 356.235 485.4M426.637 560.526C427.117 560.268 427.673 560.591 427.695 561.133C427.863 565.286 425.568 569.382 423.853 573.123L423.672 573.522C421.589 578.156 419.308 582.728 416.949 587.228C412.234 596.219 407.334 605.114 402.22 613.883C391.936 631.524 380.508 648.422 367 663.782C363.949 667.252 358.931 662.803 360.889 659.067C370.329 641.057 381.334 624.052 392.662 607.195C398.333 598.755 404 590.307 409.727 581.905C412.116 578.399 414.536 574.906 417.021 571.466L418.52 569.408M990.592 220.45C942.875 221.891 895.214 225.003 847.724 229.88C803.558 234.415 759.554 240.452 715.798 247.978C706.659 249.55 697.531 251.186 688.414 252.887L682.946 253.915C673.828 255.643 662.689 256.356 654.571 261.227C646.012 266.362 643.699 277.094 640.851 285.944C637.503 296.352 634.24 306.79 631.065 317.253C618.457 358.796 606.94 400.699 596.666 442.879C591.566 463.816 587.041 484.87 582.273 505.883C578.037 524.553 573.363 543.012 568.48 561.495C569.082 561.027 569.82 560.671 570.711 560.481C594.959 555.322 619.71 553.08 644.321 550.23L646.702 549.952C672.161 546.958 697.62 543.986 723.094 541.122L891.753 522.155C901.7 521.037 912.356 520.885 922.036 518.216C938.494 513.676 942.351 495.276 945.112 480.623L945.196 480.18C953.521 435.907 960.148 391.249 967.912 346.864M572.405 510.029C565.857 509.597 556.895 503.6 551.927 504.03C554.535 508.406 555.712 513.397 554.209 518.727C550.026 533.559 531.109 525.885 521.997 521.354C514.526 517.637 507.312 513.089 499.041 511.348C489.671 509.378 483.323 513.104 475.407 517.399C468.905 520.926 461.824 523.459 454.542 524.77C450.67 525.468 446.992 525.542 443.321 525.27C443.1 525.45 442.851 525.617 442.567 525.766L440.625 526.785C449.406 527.187 458.35 529.897 466.522 532.378C474.99 534.948 483.303 538.046 491.572 541.214L499.706 544.341C519.772 552.024 540.542 559.321 562.258 559.257C563.819 559.253 565.098 559.685 566.105 560.39M535.769 463.555C542.238 462.764 548.209 463.612 553.378 467.823C559.612 472.901 563.8 481.323 572.762 481.876C575.375 482.037 575.982 485.711 573.385 486.479C566.714 488.454 561.313 484.845 556.768 480.159L553.712 476.966C549.221 472.316 545.078 468.72 537.457 468.998C529.295 469.296 521.119 471.182 513.01 472.141C503.824 473.227 494.64 474.153 485.425 474.952C484.997 474.989 484.924 474.315 485.325 474.216L495.646 471.647M529.525 437.109L530.592 437.002C539.985 436.09 548.576 436.055 556.966 441.108L558.575 442.081C566.139 446.678 574.372 452.094 579.102 459.538C579.876 460.757 578.597 462.19 577.302 461.88C568.211 459.698 561.565 453.028 553.92 448.036C545.34 442.434 536.477 443.358 526.694 444.228C517.222 445.071 507.755 446.229 498.376 447.808C489.563 449.29 480.722 451.63 471.82 452.376L471.822 452.358C470.805 452.356 470.225 450.829 471.262 450.311C480.296 445.8 490.759 443.665 500.586 441.604M814.89 344.264C813.982 339.921 819.324 337.907 821.799 341.352L822.326 342.079C827.675 349.407 835.411 358.603 835.018 367.923C839.72 368.026 844.595 370.883 846.427 375.126C847.273 377.089 847.561 379.415 847.374 381.823C851.648 382.155 856.309 384.961 858.922 387.693C863.253 392.222 863.594 398.622 860.488 403.914C853.713 415.45 838.914 419.646 826.421 420.583L825.976 420.615C813.072 421.507 794.478 421.266 785.63 410.195C777.095 399.516 786.528 390.87 796.201 386.175C793.683 383.876 792.379 380.579 793.605 377.102C795.758 370.991 803.359 368.63 807.654 364.382C812.889 359.202 816.349 352.097 814.97 344.669M821.982 353.655C820.558 359.839 817.063 365.495 812.193 369.977C810.331 371.691 808.294 373.217 806.13 374.528L805.87 374.679C803.95 375.757 799.229 377.777 799.592 380.196C799.966 382.682 807.657 386.573 809.753 386.575C810.23 386.575 810.5 387.32 810.013 387.536C806.214 389.214 802.896 389.933 799.182 388.16C796.7 390.694 794.289 393.316 791.901 395.915C787.677 400.514 789.122 405.37 794.112 408.794C802.13 414.296 814.318 414.162 823.673 413.762C833.089 413.36 843.154 411.26 850.509 404.988L850.83 404.709C854.827 401.154 858.478 395.13 852.357 391.706C849.959 390.365 847.37 390.444 845.094 389.792C842.964 393.967 839.508 397.311 835.292 397.956C831.885 398.477 829.539 394.195 832.638 392.146L833.334 391.714C837.226 389.23 840.547 385.404 840.459 380.421C840.399 376.962 835.569 372.594 832.422 375.844L832.279 375.999C829.645 378.967 825.008 375.227 826.739 371.938L826.823 371.789M207.862 181.676C207.85 180.933 208.895 180.655 209.26 181.298C215.372 192.051 218.568 205.232 221.824 217.079C225.233 229.489 227.986 242.025 230.46 254.653C235.468 280.224 238.137 305.648 238.319 331.71C238.343 335.431 232.281 336.421 231.688 332.608C227.751 307.257 223.979 281.88 220.012 256.536C218.016 243.789 215.693 231.091 213.471 218.382M268.371 200.405C267.921 198.922 270.078 198.426 270.63 199.782C282.896 229.891 287.051 264.013 279.176 295.778C277.97 300.637 270.854 298.532 271.763 293.734M426.588 173.651C426.526 172.541 427.967 172.366 428.51 173.13C434.322 181.319 436.733 192.286 446.93 196.518C452.021 198.631 457.75 198.263 462.248 201.832C465.255 204.219 467.561 207.987 465.304 211.602C464.576 212.77 462.538 213.355 461.55 212.086C460.108 210.237 459.345 208.023 457.386 206.637C454.623 204.682 450.897 204.561 447.729 203.642C443.631 202.454 440.019 200.375 437.061 197.286M523.686 37.0674C524.285 36.7624 524.86 36.9574 525.243 37.4754C525.79 38.2134 525.723 38.9314 525.053 39.4374C525.948 41.2664 527.005 45.8484 527.156 46.5154C527.768 49.2194 528.419 51.9074 529.1 54.5934C530.474 60.0104 531.678 65.4694 533.053 70.8884C534.511 76.6324 536.248 82.3154 538.181 87.9164C538.306 88.2791 538.443 88.6493 538.587 89.025L538.807 89.5924L538.861 89.5064C539.254 88.8854 540.072 89.3194 539.975 89.9754C539.885 90.5734 539.764 91.1684 539.662 91.7664L539.865 92.3022C541.129 95.7053 541.995 99.2895 539.675 102.292C538.807 103.415 537.852 104.08 536.662 104.278C534.754 110.568 532.36 116.741 529.797 122.669L529.046 124.401C525.276 133.051 521.255 141.587 515.252 148.951C508.698 156.991 499.683 162.481 493.974 171.291C491.318 175.389 489.47 179.698 487.97 184.326L487.406 186.083C486.341 189.357 485.113 192.529 482.042 194.449C481.062 195.061 479.594 194.866 478.804 194.031C472.507 187.37 479.099 174.932 482.896 168.483C488.174 159.515 495.813 153.778 503.462 147.012C511.707 139.719 516.966 129.963 522.053 120.352C525.169 114.464 528.177 108.449 531.344 102.535C528.035 99.6111 526.976 93.8021 525.855 89.7645L525.753 89.4024C523.9 82.9364 522.428 76.3024 521.498 69.6394C520.603 63.2328 520.23 56.9184 520.466 50.4759L520.535 48.8348M535.988 67.5592C535.257 66.5572 536.467 65.4222 537.47 65.6312C543.569 66.8922 549.531 70.5835 555.004 73.5683L555.588 73.8852C559.957 76.2412 564.353 79.1272 566.647 83.7042C569.142 88.6788 568.937 94.4084 568.597 99.8144L568.564 100.32C568.147 106.803 568.08 113.539 566.708 119.905C566.006 123.163 563.055 124.081 560.532 123.311C557.53 132.79 549.097 139.774 542.937 147.254C535.083 156.79 536.561 169.665 537.382 181.15C537.714 185.8 531.93 187.122 528.951 184.641L522.086 178.939C520.943 177.987 519.801 177.034 518.662 176.076C517.687 175.256 516.721 174.429 515.762 173.591L514.33 172.327C513.695 171.759 510.894 168.63 510.075 168.5C508.092 168.185 503.379 173.413 501.766 175.053L501.561 175.257C498.525 178.234 495.782 181.437 493.227 184.834C492.757 185.458 491.838 184.94 492.174 184.219C494.464 179.315 497.126 174.626 500.287 170.238L500.925 169.364C503.028 166.53 505.851 161.526 509.563 160.689C514.096 159.668 518.622 164.213 521.92 166.736L522.128 166.894C523.697 168.071 525.248 169.269 526.796 170.475C526.634 161.924 527.714 153.284 532.129 145.915C535.242 140.718 539.906 136.869 543.897 132.403C548.34 127.43 550.66 121.318 554.682 116.139C555.2 115.473 555.914 115.114 556.687 115C556.842 110.837 557.455 106.632 557.929 102.513L558.066 101.28C558.545 96.8052 559.677 91.3392 557.486 87.1482C555.417 83.1897 550.668 80.3955 547.152 77.7097L544.28 75.4825M338.074 20.241C336.238 21.303 334.522 22.624 332.965 24.275C328.064 29.474 324.56 35.944 321.15 42.168C319.314 45.52 317.544 48.909 315.693 52.253C314.888 53.708 314.06 55.147 313.223 56.584C312.836 57.246 311.686 58.562 311.116 59.373C311.749 60.2604 312.404 61.1342 313.072 61.9986C313.327 62.3284 330.908 81.4797 337.036 88.975C346.42 100.456 354.808 112.583 361.979 125.563C369.001 138.274 374.347 151.732 380.852 164.689C384.108 171.176 387.744 177.617 392.379 183.231C392.558 183.45 392.747 183.657 392.93 183.873C394.699 179.094 399.232 173.977 401.458 171.039L401.666 170.762C406.715 163.956 412.047 157.355 417.495 150.866C422.471 144.941 427.573 139.143 432.799 133.442L434.765 131.308C438.406 127.375 443.031 121.49 448.361 118.68C447.79 117.662 447.129 116.655 446.369 115.661C441.375 109.135 434.315 104.399 427.35 100.126L422.832 97.3781C405.804 87.0013 389.042 76.1436 374.259 62.661C366.438 55.527 358.725 48.054 352.151 39.733L349.826 36.7909M366.486 15.104C358.512 15.773 349.901 15.614 342.532 18.212C349.083 24.405 355.31 31.092 361.707 37.389C362.276 33.13 363.44 28.923 364.426 24.77" transform="translate(18.9997 -5.000531)" fill="#000000" stroke="none"></path></g><g transform="translate(225 0)"><g><g><path d="M355.263 99.3187C366.641 91.1467 349.675 64.2597 343.911 56.2597C338.897 45.8237 333.883 35.3867 328.868 24.9497C329.478 16.3907 321.12 8.77573 312.861 11.3797C305.676 6.22673 293.642 8.69373 289.99 16.7617C210.543 -17.8403 73.0773 -3.44527 65.9683 103.327C50.6003 133.727 35.3683 164.387 21.7333 195.608C2.81534 196.624 -6.35466 219.607 4.90834 234.46C6.40734 258.579 21.6983 260.488 42.1123 259.415C50.3103 261.574 58.8083 262.744 64.9563 269.075C69.6293 273.85 72.8053 279.905 75.8703 285.78C90.0153 312.886 107.986 336.334 132.346 355.085C170.229 383.436 221.511 403.791 268.749 389.99C370.306 350.108 390.25 190.722 355.263 99.3187L355.263 99.3187Z" transform="translate(50.00006 125.9998)" fill="#FFFFFF" stroke="none"></path><path d="M335.259 61.2131C289.209 10.2631 214.669 -10.4169 148.319 4.99306C80.7995 20.6731 30.2595 75.8031 13.7995 142.313C9.25949 160.663 7.04949 179.893 8.37949 198.783C9.03949 208.043 10.3695 217.193 12.7495 226.173C14.3795 232.323 16.5895 238.873 19.9295 244.523C17.5295 245.833 15.3095 247.363 13.3395 249.103C-5.35051 265.583 -3.42051 296.463 13.0295 313.733C24.9595 326.263 43.9695 328.883 60.4795 327.803C61.0095 327.773 61.5695 327.693 62.1195 327.573C62.5095 328.813 63.0095 330.023 63.5095 331.213C65.2295 335.303 67.2195 339.303 69.0695 343.333C72.3157 350.394 76.1209 357.195 80.016 363.917L82.0871 367.477C89.6505 380.504 97.6955 395.302 110.009 404.373C115.719 408.573 124.499 412.533 131.419 409.203C135.409 407.283 138.379 402.833 137.119 398.243C135.859 393.653 131.919 391.563 127.679 390.503C115.315 387.424 107.915 373.332 100.782 363.574L100.219 362.813C94.1295 354.663 87.6595 346.683 80.7795 339.183C78.4366 336.633 76.007 334.144 73.5636 331.677L69.9917 328.079C68.9237 327.01 67.8278 325.961 66.6695 325.003C66.9595 324.653 67.2095 324.263 67.3995 323.833C68.7695 320.823 68.8695 318.763 67.3995 315.743C66.1495 313.183 63.1595 311.883 60.4795 311.773C58.9413 311.711 57.3833 311.67 55.816 311.629C43.4442 311.301 30.4937 310.958 22.1595 300.343C15.8095 292.273 13.7295 280.963 16.5595 271.153C19.6395 260.493 29.1395 253.833 39.6395 251.643C51.3095 249.203 62.3495 251.763 72.4895 257.793C73.0195 258.113 73.4695 257.503 73.2595 257.023C72.2295 254.623 70.9295 252.483 69.4095 250.593L70.1895 249.953L70.2771 250.066C70.4937 250.32 70.7945 250.512 71.1795 250.573C78.5095 251.713 85.3395 253.513 91.3495 257.773C92.0195 258.233 92.6895 258.743 93.3395 259.283C96.6495 262.033 102.699 260.513 102.479 255.503C101.829 240.303 98.9195 225.113 97.6395 209.953C96.3095 194.273 95.9195 178.603 96.3395 162.883L96.3479 162.516C96.358 162.038 96.3651 161.553 96.3723 161.063C96.448 155.888 96.5321 150.14 100.249 146.253C101.71 144.719 108.138 144.509 115.979 144.252C126.34 143.913 139.167 143.493 146.259 139.833C152.569 136.583 151.069 128.523 146.259 124.943C138.819 119.413 132.519 102.003 141.919 92.8031C150.619 84.2773 165.304 80.5371 177.154 78.7549L178.329 78.5831C199.442 75.5753 220.921 78.2398 242.169 80.8757C249.886 81.8329 257.572 82.7864 265.199 83.4631C273.289 84.1931 281.419 84.6731 289.549 84.6831L290.638 84.6832C298.45 84.6816 306.484 84.5742 313.24 80.5131C317.029 80.1631 320.589 79.0531 324.149 77.7231C340.299 101.793 351.71 129.543 358.339 157.723C365.239 187.033 366.339 217.423 365.629 247.423C364.169 308.823 357.369 384.803 301.399 422.593C286.759 432.473 270.629 437.913 252.919 438.413C242.909 438.703 233.02 437.583 223.249 435.443C213.259 433.263 203.669 429.063 193.6 427.573C185.239 426.343 180.129 436.453 187.709 441.543C195.098 446.496 204.073 449.009 212.727 451.176L215.009 451.743C224.509 454.093 234.239 455.633 243.999 456.313C262.509 457.613 280.829 454.503 297.869 447.213C327.459 434.543 351.059 407.933 364.339 378.993C380.899 342.883 384.729 302.963 385.839 263.693L385.887 261.948C386.748 229.369 385.815 196.511 379.379 164.473C375.77 146.513 370.219 129.253 361.519 113.083C353.479 98.1331 341.749 85.7131 327.679 76.3631C328.609 76.0031 329.539 75.6331 330.489 75.2831C331.27 76.3451 332.078 77.3819 332.896 78.4151L334.539 80.4831C335.649 81.8931 338.079 81.6531 339.249 80.4831C340.429 79.2931 340.629 76.9431 339.249 75.7731C337.929 74.6631 336.629 73.5531 335.299 72.4731C338.149 69.4531 338.499 64.7931 335.259 61.2131ZM64.7389 275.687C51.0892 272.071 26.0704 265.443 28.7496 280.983C28.8396 281.513 29.7496 281.523 29.8296 280.983C31.1416 272.485 41.8144 278.218 47.3526 281.193C48.1885 281.642 48.9075 282.028 49.4596 282.293L50.5901 282.824C55.8857 285.275 61.4403 287.349 66.4896 290.243L66.7737 290.4C76.1079 295.355 81.3938 278.719 71.9096 277.403L71.6682 277.367C70.1805 277.129 67.7333 276.481 64.7389 275.687Z" transform="translate(45.00021 64.99994)" fill="#000000" fill-rule="evenodd" stroke="none"></path></g></g><g transform="translate(159 186)"><g><path d="M15.9252 11.6746C25.7472 1.65261 51.3592 -8.04539 58.0782 10.4616C59.3582 13.9866 56.6332 18.7396 52.9632 19.4706C49.6471 20.1305 46.5373 19.632 43.413 19.1311C40.8749 18.7243 38.3271 18.3158 35.6512 18.5256C30.8182 18.9066 25.7772 20.5216 21.9132 23.5156C11.2112 31.8076 8.85721 45.8326 1.40021 56.3866C1.03721 56.9006 0.332206 56.6846 0.265206 56.0786C-1.43279 40.7136 5.16721 22.6506 15.9252 11.6746ZM164.471 1.74571C157.919 -0.296292 150.538 -0.493292 144.02 1.80871C140.872 2.92071 138.005 4.40171 135.378 6.45171C132.79 8.47171 131.676 10.5267 129.743 13.0307C129.356 13.5327 129.994 14.2247 130.537 14.0637C140.738 11.0477 154.631 13.0867 163.104 19.4867C166.689 22.1957 169.646 25.8837 171.372 30.0517C173.985 36.3617 174.902 42.3067 182.45 44.4907C185.823 45.4677 189.549 44.4077 192.02 41.9617L192.635 41.3517L192.843 41.141C197.439 36.3352 195.245 29.5801 190.11 26.6157C189.161 24.8407 188.283 21.8597 187.448 20.4167C185.876 17.6937 183.916 15.1357 181.798 12.8177C177.13 7.71171 171.071 3.80371 164.471 1.74571ZM156.036 44.5815C172.692 43.8015 183.053 61.9875 179.223 76.8885C178.561 79.4595 175.685 81.9835 172.909 81.6945L172.209 81.6301C171.854 81.596 171.497 81.5511 171.169 81.4605C168.533 80.7305 166.17 77.9885 166.362 75.1465L166.413 74.3184C166.801 67.2793 166.038 59.1692 157.673 57.4645C150.578 56.0185 146.617 62.8475 146.533 69.1335C146.517 70.2495 145.263 71.0285 144.276 70.4285C139.147 67.3075 138.259 61.0985 140.218 55.7515C142.701 48.9765 148.915 44.9145 156.036 44.5815ZM63.4997 61.6149C57.6307 50.8989 44.5537 44.4379 32.4327 48.4819C25.8267 50.6849 20.5927 56.2799 17.8997 62.5709C15.8467 67.3649 14.8117 75.7409 20.5707 78.5239C21.3347 78.8929 22.0987 78.8039 22.7357 78.2449C28.1577 73.4889 27.9337 65.3249 35.6637 62.6269C42.2807 60.3169 49.5447 64.6709 51.3347 71.2699L51.4015 71.5005C52.9774 76.6056 60.0783 78.726 63.8697 74.5789C66.2937 71.9279 66.9157 69.7239 67.3287 66.2279C67.6147 63.7979 65.5587 62.2109 63.4997 61.6149ZM150.214 87.9682C148.264 65.8832 117.473 73.0662 105.201 80.0942C104.352 80.5802 104.675 82.0962 105.722 82.0162C108.163 81.8301 110.587 81.5015 113.011 81.173C117.151 80.612 121.287 80.0515 125.495 80.2022C129.964 80.3642 137.1 81.2762 138.777 86.2682C140.672 91.9112 134.562 96.2222 129.979 97.5692L129.713 97.6467C125.466 98.8763 117.455 100.78 113.649 98.1962C106.243 93.1662 98.3377 104.175 104.298 110.315C111.459 117.692 126.126 113.85 134.401 110.448L134.732 110.309C143.555 106.552 151.11 98.1312 150.214 87.9682ZM43.3465 121.477C56.0075 119.94 68.3817 122.402 80.7379 124.859C85.1111 125.729 89.4821 126.598 93.8627 127.29C102.711 128.686 111.57 129.728 120.523 130.116C122.324 130.194 124.127 130.24 125.929 130.277C126.096 128.691 126.984 127.234 128.908 126.361C132.852 124.574 136.008 123.768 140.338 123.94C144.301 124.097 148.278 124.504 152.181 125.218C159.268 126.518 166.386 129.466 171.57 134.589C183.567 146.442 181.741 165.481 172.471 178.391C153.319 205.069 118.364 206.307 88.4261 205.959L85.6634 205.923C82.6154 205.879 79.4206 205.891 76.1327 205.904L76.121 205.904C50.0058 206.004 18.0177 206.126 7.01977 178.584C2.46558 167.179 3.09822 153.96 8.67421 143.021C15.3249 129.974 29.3247 123.179 43.3465 121.477ZM81.4794 137.485L78.0689 137.102C77.7892 137.07 77.5094 137.038 77.2297 137.006C68.0368 135.957 58.8485 134.909 49.6549 135.539C48.2839 135.634 46.8919 135.783 45.4969 135.988C47.1713 142.03 47.0306 149.126 47.7301 155.107C48.0005 157.42 48.3418 159.714 48.7199 161.999L50.3634 161.922C60.5285 161.371 70.7036 161.032 80.8767 160.628C80.8759 158.718 80.8864 156.807 80.9169 154.895L80.9545 152.983C80.9884 151.554 80.9853 150.072 80.9822 148.563C80.9748 144.913 80.9669 141.102 81.4794 137.485ZM99.1274 138.664C108.873 138.652 119.127 138.311 129.049 136.71C129.463 137.009 129.9 137.27 130.361 137.459L130.753 137.601C130.23 142.195 129.86 146.809 129.523 151.424L129.029 158.345L127.265 158.439C114.764 159.074 102.261 159.687 89.7565 160.254L89.3311 156.653C88.8541 152.537 88.4152 148.417 88.0313 144.292C87.8407 142.25 87.709 140.155 87.4555 138.085C91.3441 138.43 95.2347 138.669 99.1274 138.664ZM22.3597 149.574C26.3002 142.485 33.6324 138.61 41.3798 136.776C39.4864 142.644 39.3956 149.948 39.2149 155.765L39.1128 158.814C39.0769 160.004 39.0488 161.196 39.0268 162.39C32.3981 162.629 25.7374 162.918 19.1896 163.68C18.992 158.767 20.0208 153.781 22.3597 149.574ZM133.358 138.428C133.904 144.953 134.207 151.505 134.609 158.042L142.85 157.602C144.224 157.527 145.597 157.45 146.97 157.371C148.454 157.286 150.056 157.099 151.708 156.906C156.003 156.406 160.64 155.865 164.453 156.955C164.856 152.155 163.484 147.479 159.152 144.255C151.547 138.591 141.864 140.608 133.358 138.428ZM162.585 164.278C159.359 165.039 155.772 165.031 152.353 165.023C150.839 165.02 149.358 165.017 147.956 165.08C143.678 165.275 139.399 165.444 135.121 165.617C135.322 168.538 135.519 171.457 135.733 174.376C136.008 178.148 136.034 182.135 136.756 185.891C145.366 182.953 153.08 178.241 158.868 170.706C160.31 168.829 161.601 166.626 162.585 164.278ZM128.251 165.905L128.495 165.895C128.318 168.393 128.136 170.89 127.967 173.389C127.697 177.412 127.761 181.732 127.061 185.787C126.359 186.373 125.83 187.229 125.649 188.501L125.629 188.717C115.677 190.492 105.17 190.681 95.4074 190.604C95.2976 190.367 95.1879 190.129 95.0362 189.893C94.6001 189.21 94.0144 188.74 93.3688 188.448L93.4296 188.028C93.5443 187.307 93.3051 186.307 93.0891 185.404C92.9875 184.979 92.891 184.576 92.8389 184.233C92.4547 181.703 92.0855 179.17 91.7413 176.635C91.3022 173.412 90.918 170.182 90.5419 166.953C103.117 166.73 115.683 166.39 128.251 165.905ZM21.2471 173.269C20.3321 171.062 19.7204 168.691 19.4061 166.269C25.8672 166.917 32.448 167.056 38.9849 167.117C39.0069 172.956 39.2992 178.802 40.1125 184.552C40.4388 186.865 41.731 188.215 43.3585 188.777C33.9787 186.944 25.1138 182.593 21.2471 173.269ZM80.9375 167.124C71.8788 167.278 62.8162 167.397 53.7594 167.286L49.6479 167.223C50.5161 171.881 51.461 176.523 52.2463 181.212C53.0656 186.099 48.7639 189.206 45.0409 189.081C45.459 189.149 45.8761 189.22 46.2942 189.279C55.9646 190.647 65.9434 190.576 75.817 190.505C77.8197 190.491 79.8181 190.477 81.8087 190.475C81.3529 187.814 81.3567 184.909 81.3601 182.337L81.3601 182.337C81.3614 181.325 81.3627 180.365 81.3358 179.491L81.3177 179.012C81.1371 175.047 81.0104 171.086 80.9375 167.124Z" transform="translate(50.00019 64.99949)" fill="#000000" fill-rule="evenodd" stroke="none"></path></g></g><g transform="translate(123 338)"></g><g transform="translate(47 241)"><g><path d="M375.513 33.9959C378.273 31.6829 383.089 31.1349 386.423 31.1279C394.028 32.5829 390.88 44.1729 376.385 36.9629C398.166 128.052 258.709 131.937 282.237 45.3469C268.157 41.9599 253.29 41.6839 240.365 48.1139C251.522 87.8139 214.401 125.982 171.734 116.181C144.179 109.783 125.789 88.4229 134.308 57.0269C128.899 58.7229 118.76 57.3109 115.622 53.0899C104.775 52.1634 93.9913 50.8415 83.2204 49.5212C59.091 46.5633 35.0273 43.6135 10.4674 45.1359C7.12749 45.5983 7.31436 47.952 7.50111 50.304C7.68714 52.6469 7.87304 54.9883 4.57241 55.4569C-3.01759 54.7649 -0.0355915 41.9389 5.39841 39.8539C13.0234 34.3889 78.5984 39.8119 116.105 49.6479C121.083 46.3825 128.583 47.3802 134.493 48.1664C135.445 48.2929 136.355 48.414 137.206 48.5109C144.594 30.0029 168.272 6.93191 192.028 10.8229C213.793 12.0919 232.079 20.6889 239.509 45.2399C250.854 34.9489 271.426 31.6259 284.509 39.4079C291.765 23.0939 304.532 10.8229 321.737 5.28991C343.585 -10.2001 368.707 11.0429 375.513 33.9959ZM358.311 87.4579C346.17 100.003 325.902 103.603 309.749 96.8749C268.273 79.5459 288.574 25.4959 320.561 10.9809C324.557 9.98491 329.894 7.62191 334.761 7.08591C334.928 7.0043 335.168 7.04274 335.465 7.09029C335.954 7.1686 336.598 7.27161 337.32 6.90391C372.591 10.8419 380.623 65.5939 358.311 87.4579ZM164.916 105.906C185.6 114.302 210.916 108.73 224.533 90.6689C249.948 57.3679 225.561 0.903908 166.504 23.0949C138.547 41.8849 124.054 89.8139 164.916 105.906ZM135.953 50.6509C135.915 50.6329 135.877 50.6239 135.838 50.6059C136.054 50.5109 136.27 50.4159 136.485 50.3189C136.415 50.5019 136.339 50.6829 136.271 50.8659C136.165 50.7929 136.072 50.7079 135.953 50.6509Z" transform="translate(13.99969 7.999794)" fill="#000000" fill-rule="evenodd" stroke="none"></path></g></g></g></g></svg>